<svg height="512pt" viewBox="0 0 512.00101 512" width="512pt" xmlns="http://www.w3.org/2000/svg"><path d="m123.878906 151.597656h1.824219v1.824219c0 5.519531 4.476563 10 9.996094 10 5.523437 0 10-4.480469 10-10v-1.824219h1.824219c5.523437 0 10-4.476562 10-10 0-5.519531-4.476563-10-10-10h-1.824219v-1.824218c0-5.519532-4.476563-10-10-10-5.519531 0-9.996094 4.480468-9.996094 10v1.824218h-1.824219c-5.523437 0-10 4.480469-10 10 0 5.523438 4.476563 10 10 10zm0 0"/><path d="m457.792969 482.875c-.652344 0-1.3125-.070312-1.953125-.199219-.636719-.128906-1.269532-.320312-1.867188-.570312-.609375-.25-1.191406-.558594-1.730468-.917969-.550782-.359375-1.058594-.78125-1.519532-1.242188-.460937-.457031-.878906-.980468-1.242187-1.519531-.359375-.550781-.667969-1.128906-.917969-1.730469-.25-.601562-.449219-1.230468-.570312-1.867187-.128907-.652344-.199219-1.300781-.199219-1.953125 0-.660156.070312-1.308594.199219-1.957031.121093-.640625.320312-1.269531.570312-1.871094s.558594-1.179687.917969-1.730469c.363281-.539062.78125-1.058594 1.242187-1.519531.460938-.460937.96875-.871094 1.519532-1.238281.539062-.359375 1.121093-.671875 1.730468-.921875.597656-.25 1.230469-.4375 1.867188-.570313 3.25-.648437 6.703125.410156 9.023437 2.730469.457031.460937.878907.980469 1.238281 1.519531.359376.550782.667969 1.132813.917969 1.730469.25.601563.453125 1.230469.582031 1.871094.128907.648437.191407 1.296875.191407 1.957031 0 .652344-.0625 1.300781-.191407 1.953125-.128906.636719-.332031 1.269531-.582031 1.867187-.25.601563-.558593 1.179688-.917969 1.730469-.359374.539063-.78125 1.0625-1.238281 1.519531-1.863281 1.859376-4.441406 2.929688-7.070312 2.929688zm0 0"/><path d="m502 433.757812h-10.300781c-4.578125-37.261718-21.515625-72.0625-48.289063-98.835937-31.957031-31.953125-74.441406-49.550781-119.636718-49.550781-23.707032 0-46.671876 4.84375-67.761719 14.0625l-65.457031-132.242188c3.644531-7.777344 5.679687-16.453125 5.679687-25.59375 0-25.289062-15.585937-47.007812-37.660156-56.046875v-13.515625c5.042969-.511718 8.980469-4.769531 8.980469-9.949218v-52.085938c0-5.523438-4.476563-10-10-10h-43.707032c-5.523437 0-10 4.476562-10 10v52.085938c0 5.179687 3.9375 9.441406 8.980469 9.949218v13.515625c-22.074219 9.039063-37.664063 30.757813-37.664063 56.046875 0 8.941406 1.949219 17.433594 5.441407 25.078125l-75.980469 154.496094c-5.3125 10.871094-6.074219 23.160156-2.148438 34.605469 2.824219 8.222656 7.824219 15.300781 14.449219 20.605468l-10.0625 20.582032c-2.425781 4.960937-.367187 10.949218 4.59375 13.375 1.414063.691406 2.910157 1.019531 4.382813 1.019531 3.703125 0 7.257812-2.0625 8.992187-5.613281l54.863281-111.8125h29.167969v.613281c0 14.800781 12.039063 26.839844 26.835938 26.839844 14.800781 0 26.839843-12.039063 26.839843-26.839844v-.613281h28.9375l17.8125 36.050781c-1.742187 1.605469-3.460937 3.253906-5.144531 4.9375-26.773437 26.773437-43.714843 61.578125-48.292969 98.835937h-10.296874c-5.523438 0-10 4.480469-10 10v58.226563c0 5.523437 4.476562 10 10 10h356.445312c5.523438 0 10-4.476563 10-10v-58.226563c0-5.523437-4.476562-10-10-10zm-378.152344-413.757812h23.707032v32.089844h-23.707032zm14.726563 52.085938v9.046874c-.953125-.046874-1.910157-.070312-2.875-.070312-.960938 0-1.917969.023438-2.871094.070312v-9.042968h5.746094zm-2.875 28.976562c22.351562 0 40.539062 18.183594 40.539062 40.535156 0 22.351563-18.183593 40.535156-40.539062 40.535156-22.351563 0-40.535157-18.183593-40.535157-40.535156 0-22.351562 18.183594-40.535156 40.535157-40.535156zm-109.574219 256.503906c-2.0625-2.402344-3.671875-5.199218-4.730469-8.28125-2.195312-6.394531-1.769531-13.257812 1.1875-19.308594l71.1875-144.753906c3.738281 3.59375 7.9375 6.714844 12.496094 9.261719zm116.414062-63.019531c0 3.769531-3.066406 6.839844-6.839843 6.839844-3.769531 0-6.835938-3.066407-6.835938-6.839844v-21.230469c0-3.773437 3.066407-6.839844 6.835938-6.839844 3.773437 0 6.839843 3.066407 6.839843 6.839844zm20-20.617187v-.613282c0-14.800781-12.039062-26.839844-26.839843-26.839844-14.796875 0-26.835938 12.039063-26.835938 26.839844v.613282h-19.34375l35.714844-72.703126c3.398437.597657 6.898437.90625 10.464844.90625 3.414062 0 6.757812-.285156 10.015625-.828124l35.878906 72.625zm2.21875-79.238282c4.578126-2.511718 8.796876-5.601562 12.558594-9.167968l60.882813 123.003906c-4.449219 2.617187-8.792969 5.449218-13.011719 8.484375zm53.527344 154.375c28.175782-28.179687 65.640625-43.695312 105.492188-43.695312 39.847656 0 77.3125 15.515625 105.492187 43.695312 23.023438 23.023438 37.800781 52.769532 42.261719 84.691406h-40.117188c-4.511718-23.15625-16.511718-44.378906-34.367187-60.492187-20.25-18.277344-46.273437-28.34375-73.269531-28.34375-27 0-53.019532 10.066406-73.273438 28.34375-17.851562 16.117187-29.851562 37.335937-34.363281 60.492187h-40.117187c4.457031-31.921874 19.234374-61.667968 42.261718-84.691406zm192.652344 84.691406h-174.324219c9.589844-39.386718 45.894531-68.839843 87.164063-68.839843 41.269531 0 77.574218 29.453125 87.160156 68.839843zm81.0625 58.226563h-336.449219v-9.113281h259.242188c5.523437 0 10-4.476563 10-10 0-5.519532-4.476563-10-10-10h-259.242188v-9.113282h336.449219zm0 0"/></svg>