<svg xmlns="http://www.w3.org/2000/svg" xmlns:xlink="http://www.w3.org/1999/xlink" viewBox="0 0 3490 2463" width="100%" height="auto">
<path class="red" d="M163.036 1717.2v-246h3184v492h-3184zm220.43 123.43c1.386-1.385 1.57-7.347 1.57-50.44v-48.868l48.25-.3c47.443-.306 48.375-.35 55.75-2.665 10.295-3.23 19.162-7.464 25.6-12.22 5.947-4.394 15.017-14.82 17.993-20.686 1.044-2.057 2.617-4.864 3.496-6.24s2.86-6.325 4.403-11c2.38-7.2 2.82-10.245 2.897-20 .095-11.824-.79-17.447-4.254-27-7.538-20.798-26.143-38.883-46.407-45.1-14.773-4.54-22.793-4.873-117.54-4.88-59.67-.01-89.958.335-91.25 1.027-1.837.984-1.934 2.358-1.934 27.465s.097 26.482 1.934 27.466c1.28.684 25.137 1.035 70.462 1.035l74.24 2.138c7.006 2.62 9.85 5.56 12 12.41 1.447 4.592 1.5 5.89.33 10.03-.732 2.614-2.644 6.25-4.25 8.077-5.588 6.365-5.33 6.345-81.977 6.345l-70.818 1.035c-1.886 1.01-1.934 2.913-1.934 76.45l1.75 76.434c1.12.653 19.07 1.03 49.93 1.05l49.75-1.54zm522.95.285c1.635-1.196 1.735-3.84 1.4-37.25l-.35-35.964-3.385-8.5c-1.862-4.675-4.435-10.178-5.72-12.23s-2.334-4.124-2.334-4.605c0-.878-7.924-8.296-14.317-13.402-3.915-3.126-13.358-7.74-15.874-7.753-3.437-.02-2.74-1.928.913-2.5 18.537-2.903 32.53-11.17 43.286-25.57 5.717-7.654 8.232-13.133 10.99-23.938 3.227-12.64 2.45-21.682-3.217-37.5-3.02-8.427-5.994-12.83-13.783-20.408-7.63-7.422-15.648-12.61-23.686-15.323-13.245-4.472-20.095-4.732-125.03-4.752-97.077-.017-99.237.024-100.25 1.916-1.318 2.463-1.37 47.987-.057 50.066.824 1.304 10.787 1.566 76.387 2l75.44.5 4.348 3.084c5.76 4.085 10.184 12.362 9.5 17.766-.692 5.464-5.5 12.717-10.187 15.372l-3.965 2.245-74.68.015-76.25 1.588c-1.34 1.34-1.57 5.04-1.57 25.066 0 14.284.406 24.253 1.035 25.428 1.007 1.88 2.78 1.935 64.25 1.945l68.2 1.524c7.63 2.314 11.938 5.668 14.89 11.595l2.623 5.263v41.605l1.2 42.804c1.802 1.802 97.71 1.718 100.18-.087zm342.12.32c16.294-1.126 33.887-4.1 50.294-8.505 12.148-3.26 34.608-11.074 40.105-13.95l10.136-4.973c4.144-1.986 11.57-6.3 16.5-9.586 17.846-11.895 27.734-21.8 39.948-40.016 5.2-7.757 6.928-11.427 9.415-20 5.827-20.09 5.968-35.07.5-53.337-4.27-14.27-12.94-28.028-25.804-40.947-23.192-23.29-52.562-38.977-92.146-49.212-25.186-6.512-56.454-10.148-78.475-9.126-44.205 2.054-85.692 12.483-115.97 29.156-34.47 18.98-57.514 43.784-65.516 70.52-3.806 12.716-4.722 23.794-3.018 36.518 1.764 13.175 4.035 19.958 10.8 32.25 16.22 29.475 42.598 49.388 87.236 65.858 18.253 6.735 53.388 14.47 71 15.63 10.788.71 32.63.576 45-.28zm-41.5-54.475c-16.622-3.117-24.218-6.002-38.5-14.617-27.48-16.58-39.814-48.57-29.276-75.94 3.95-10.263 14.415-24.114 22.776-30.148 8.446-6.097 27.676-14.898 38.353-17.555 17.948-4.466 44.692-3.302 62.15 2.705 10.485 3.607 23.336 11.07 31.783 18.453 24.81 21.7 30.462 49.844 15.412 76.76-6.17 11.03-20.428 24.124-33.25 30.53-6.353 3.175-23.468 8.6-32.333 10.252-7.187 1.338-29 1.08-37.114-.44zm614.8 54.243c1.737-1.737 1.737-153.86 0-155.6-1-1-13.25-1.2-49.43-1.2l-49.8 1.57c-1.387 1.387-1.57 7.5-1.57 52v50.43h-38.35c-25.406 0-39.42-.373-41.52-1.105-2.122-.74-4.07-2.64-5.9-5.75-2.684-4.565-2.736-4.98-3.058-24.146-.277-16.503-.575-19.692-1.94-20.75-2.095-1.622-95.286-1.826-98.297-.214-1.823.976-1.93 2.26-1.863 22.25.11 32.684 1.613 43.682 7.345 53.715 8.733 15.287 24.558 26.59 40.522 28.938 3.06.45 58.9.874 124.1.94l119.75-1.078zm346-.77c7.602-1.083 15.444-2.65 17.428-3.477s7.887-2.435 13.12-3.568c12.95-2.806 24.18-6.723 38.352-13.38l13.086-5.604c1.038 0 9.923-5.852 24.532-16.162 9.856-6.955 24.024-22.523 31.25-34.337 7.395-12.093 9.982-18.56 8.157-20.384-.793-.792-15.55-1.117-50.828-1.117h-49.71l-2.59 3.077c-1.424 1.692-2.59 3.4-2.59 3.792 0 1.42-9.936 12.428-15.655 17.342-6.314 5.427-28.5 16.8-36.345 18.63-11.228 2.62-26.707 3.493-40.895 2.305-14.182-1.188-22.088-3.055-32.744-7.733-16.71-7.336-33.656-22.094-40.094-34.92-3.18-6.338-6.267-15.9-6.267-19.4v-2.097h140.43c158.13 0 143.57.814 143.57-8.02 0-10.292-5.478-28.738-12.27-41.31-5.04-9.33-20.6-28.325-26.23-32.025l-14.5-10.084-11.127-7.508c-.345-.028-5.52-2.813-11.5-6.188s-14.248-7.163-18.373-8.418l-14.27-4.853c-7.59-2.885-15.64-4.733-33.23-7.63l-20.23-3.516c-9.314-1.742-26.127-1.88-51.27-.42-28.736 1.668-37.854 3.072-52.947 8.15l-16.053 4.87c-2.475.54-8.775 3.065-14 5.608l-15.992 7.605c-6.06 2.782-14.973 8.088-27.964 16.647-6.996 4.61-21.118 18.6-27.855 27.594-7.668 10.24-13.913 23.946-16.987 37.284-2.48 10.763-2.547 11.8-1.454 22.5 2.066 20.23 10.23 38.963 23.41 53.716 8.78 9.83 17.066 17.724 22.446 21.387 16.384 11.155 24.5 16.096 33.626 20.447 14.142 6.75 28.186 12.023 33.92 12.738 2.942.366 10.027 1.96 15.744 3.54 9.783 2.704 27.756 5.482 40.105 6.2 3.025.176 15.73.403 28.236.504 18.044.148 25.59-.22 36.558-1.785zm-129.8-139.7c0-3.438 8.515-18.06 14.334-24.615 9.833-11.075 26.05-20.765 42.166-25.196 27.232-7.486 58.94-4.847 82.213 6.84 5.002 2.513 9.25 4.943 9.44 5.4s2.423 2.405 4.96 4.324c10.99 8.315 23.886 26.44 23.886 33.568 0 1.124-14.845 1.35-88.5 1.35-82.096 0-88.5-.12-88.5-1.674zm691.63 140.56c1.085-.9 1.366-6.06 1.366-25.077 0-14.592-.404-24.7-1.035-25.878-1.004-1.876-2.68-1.935-55.75-1.938-57.497 0-65.866-.466-81.97-4.542-15.04-3.806-26.638-10.248-38.367-21.313-9.14-8.622-10.392-10.27-15.026-19.755l-5.055-10.35-.148-13.768c-.13-11.986.147-14.624 2.136-20.377 3.04-8.795 7.025-14.867 15.597-23.767 11.98-12.44 28.19-21.448 46.618-25.908 10.48-2.537 10.61-2.542 70.787-3.13l61.235-2.087c.526-.834.954-12.02.962-25.18.013-20.802-.187-23.882-1.655-25.35-1.534-1.534-6.382-1.63-59.25-1.173-72.45.626-84.92 1.717-121.08 10.594-25.6 6.288-61.096 23.545-74.852 36.404-1.457 1.362-4.06 3.188-5.788 4.06-5.108 2.574-17.63 17.95-24.624 30.233-6.636 11.655-9.335 18.765-11.275 29.697-4.593 25.884 1.754 50.587 18.024 70.157 7.024 8.45 22.652 23.542 28.436 27.464l20.98 13.304 7.6 3.3 11.5 5.244c3.575 1.63 12.8 4.856 20.5 7.166l21.5 6.562c9.13 2.875 11.544 3.36 20.5 4.115l15.5 1.327c14.825 1.283 131.08 1.242 132.63-.047zm496.17-.09c1.555-1.556 1.706-47.988.165-50.866-1.01-1.89-3.084-1.935-91.6-1.935-101.4 0-95 .47-99.452-7.286l-2.414-4.214-.58-131.5h42.97c37.73 0 43.16-.192 44.54-1.572 1.34-1.34 1.572-5.04 1.572-25.066 0-14.282-.406-24.253-1.035-25.427-1-1.867-2.55-1.935-44.5-1.935h-43.465v-35.43c0-30.874-.202-35.63-1.572-37-1.385-1.385-7.29-1.57-49.8-1.57l-49.43 1.2c-.888.888-1.2 10.49-1.2 37v35.8h-42.93c-37.693 0-43.12.193-44.5 1.572-1.34 1.34-1.572 5.073-1.572 25.43s.23 24.087 1.572 25.428c1.38 1.38 6.804 1.572 44.463 1.572h42.892l.296 73.25 2.46 79.387c8.01 22.728 24.245 37.985 45.1 42.383 8.17 1.723 16.193 1.843 127.77 1.91l120.25-1.13zm-1403.8-178.73c.654-1.22 1.035-14.097 1.035-34.927 0-28.662-.206-33.2-1.57-34.566-1.385-1.385-7.255-1.572-49.43-1.572l-49.43 1.572c-1.365 1.365-1.57 5.904-1.57 34.566l1.035 34.927c1.002 1.872 2.613 1.935 49.965 1.935s48.963-.062 49.965-1.935zm-587.68-248.28l-104.27-262.51 498.5-1.862 11-2.615c9.96-2.368 27.96-8.922 36.63-13.336 14.093-7.176 34.7-23.768 44.02-35.46 22.945-28.754 31.208-50.402 34.383-90.078 1.19-14.854-2.332-35.032-9.576-54.88-6.442-17.65-12.523-26.822-28.872-43.542l-126.18-128.5-257.12-263c-25.8-30.164-43.804-68.148-51.64-109-4.207-21.937-3.607-58.524 1.386-84.5 1.962-10.207 21.62-82.317 23.088-84.692.574-.928 386.38-1.123 386.38-.195 0 .337-2 3.272-4.442 6.522-10.844 14.425-16.33 28.746-20.61 53.788-2 12.29 1.124 36.346 6.694 49.935 5.64 13.764 12.02 23.86 21.308 33.727l50.55 52.426 220.7 228.07 104.97 116.42c13.78 20.037 22.435 35.816 34.284 62.5 15.164 34.15 26.675 78.615 31.028 119.86 4.092 38.775.142 87.556-10.58 130.64-4.542 18.25-12.443 42.884-14.214 44.314-.656.53-6.406 1.71-12.78 2.622s-14.023 2.308-17 3-6.572 1.446-7.99 1.452-10.867 2.652-21 5.88c-15.026 4.785-22.044 7.716-38.06 15.892-31.54 16.1-32.543 16.784-50.862 34.594-13.933 13.547-17.346 17.71-23.304 28.423-7.563 13.598-12.47 26.017-15.297 38.724-2.455 11.032-2.62 13.14-2.036 26.14.876 19.512 4.64 35.28 11.026 46.17 2.536 4.326 4.612 8.584 4.612 9.46 0 1.377-4.82 5.73-6.344 5.73-.295 0-4.275 2.25-8.846 5s-8.63 5-9.02 5-7.366 3.206-15.5 7.123c-23.284 11.21-29.02 13.72-37.167 16.255l-25.122 7.905c-18.6 5.876-38.538 10.01-69.825 14.477l-18.675 2.665c-678.67.394 51.912.113-514.22-.643z" fill="#fb0101"/>
<path class="black" d="M280.406 1414.1l426.93-1055.4c1.025-.155 151.4 375.65 151.5 378.6l-163.95 409.28c0 1.303 19.6 1.484 162.75 1.497l164.04.835c1.685 1.07 105.45 263.95 104.68 265.2-.797 1.29-845.14 1.3-845.93.01zm1841 .258c-21.984-1.914-57.02-9.282-74.875-15.746-38.354-13.884-72.996-41.09-87.944-69.07-7.936-14.855-11.22-32.46-9.185-49.25 2.065-17.042 8.166-31.78 18.528-44.752 6.332-7.927 22.955-24.05 30.475-29.558 18.255-13.372 47.645-26.072 75-32.41l22-5.174c11.92-2.915 43.997-4.33 98.55-4.345l53.75 1.186c1.78 1.78 1.7 50.138-.083 51.62-.865.717-20.99 1.188-61.75 1.443-72.923.455-71.202.233-95.044 12.31-14.412 7.3-14.908 7.66-23.312 16.948-8.632 9.538-14.123 18.525-15.876 25.98-1.618 6.88-1.153 27.278.775 34 1.864 6.5 7.1 15.93 10.558 19.05 1.19 1.072 3.513 3.904 5.162 6.294 1.696 2.46 5.66 6.025 9.134 8.214l10.255 6.92c2.265 1.68 6.315 3.75 9 4.603s6.03 2.17 7.436 2.926 7.255 2.334 13 3.51c10.014 2.046 12.893 2.13 69.8 2.024l60.75 1.047c1.885 1.565 2.066 49.84.194 51.71-.91.91-15.8 1.16-61.75 1.032l-64.55-.515zm375.5-.367c-20.92-1.86-52.95-8.625-68.412-14.45-12.043-4.536-39.77-19.143-48.516-25.557-4.635-3.4-12.893-10.515-18.35-15.8-18.518-17.97-28.817-37.647-31.578-60.333-2.728-22.412 6.296-47.58 24.394-68.047 14.266-16.132 27.976-26.528 51.6-39.14 18.176-9.698 53.738-20.28 77.852-23.165 11.413-1.366 42.704-2.132 62-1.52 27.066.86 70.972 12.52 94.826 25.182 22.952 12.183 38.82 24.506 52.404 40.697 12.576 14.99 19.536 29.984 22.272 47.992 3.16 20.788-3.395 43.187-18.728 63.994-6.224 8.447-20.48 22.325-30.775 29.96-9.566 7.093-35.434 20.8-48.772 25.822-16.256 6.133-46.492 12.312-70.728 14.456-11.738 1.038-37.4.997-49.5-.08zm40-53.45c13.925-1.17 20.192-3.075 37.553-11.418 8.52-4.094 18.248-11.29 23.055-17.057l4.222-4.995c.732-.84 2.894-4.21 4.806-7.49 9.447-16.2 9.983-39.46 1.306-56.65-3.07-6.082-10.655-16.01-14.81-19.386-20.932-17.005-41.612-24.487-67.724-24.496-27.296-.01-47.587 5.978-65.743 19.404-37.793 27.95-37.744 75.406.107 103.41 9 6.734 22.736 13.597 31.072 15.64 6.716 1.646 8.1 1.92 15.07 3.005 1.88.292 3.568.682 3.752.868.402.402 19.56-.186 27.33-.838zm261.2 53.302c-1.897-1.897-1.725-239.12.174-240.7 1.02-.847 49.16-1.066 187.25-.85l185.88.293 8 3.074c13.836 5.316 17.75 7.8 25.836 16.396 9.083 9.655 13.774 18.56 16.664 31.63 1.86 8.418 1.958 13.242 1.978 99l-1.178 91.25c-1.73 1.73-98.87 1.73-100.6 0-.914-.914-1.2-21-1.2-83.85l-1.136-86.05c-.625-1.87-2.312-4.692-3.75-6.272-4.973-5.467-6.174-5.628-42.082-5.628H3040.9v90.3l-1.2 91.5c-1.723 1.723-77.877 1.723-79.6 0-.916-.916-1.2-22.6-1.2-91.5v-90.3h-80v90.3l-1.2 91.5c-1.723 1.723-77.877 1.723-79.6 0zm-1683-294.65c-1.677-1.064-352.43-879.98-351.67-881.2.72-1.166 389.4-1.258 391.24-.093 1.672 1.06 351.44 880 350.68 881.22-.724 1.17-388.4 1.26-390.25.09z" fill="#010101"/>
</svg>